<svg width="489.802" height="489.802" xmlns="http://www.w3.org/2000/svg" xml:space="preserve" version="1.1">

 <g>
  <title>Layer 1</title>
  <g id="svg_1">
   <path fill="#ffffff" id="svg_2" d="m20.701,281.901l32.1,0.2c4.8,24.7 14.3,48.7 28.7,70.5l-22.8,22.6c-8.2,8.1 -8.2,21.2 -0.2,29.4l24.6,24.9c8.1,8.2 21.2,8.2 29.4,0.2l22.8,-22.6c21.6,14.6 45.5,24.5 70.2,29.5l-0.2,32.1c-0.1,11.5 9.2,20.8 20.7,20.9l35,0.2c11.5,0.1 20.8,-9.2 20.9,-20.7l0.2,-32.1c24.7,-4.8 48.7,-14.3 70.5,-28.7l22.6,22.8c8.1,8.2 21.2,8.2 29.4,0.2l24.9,-24.6c8.2,-8.1 8.2,-21.2 0.2,-29.4l-22.6,-22.8c14.6,-21.6 24.5,-45.5 29.5,-70.2l32.1,0.2c11.5,0.1 20.8,-9.2 20.9,-20.7l0.2,-35c0.1,-11.5 -9.2,-20.8 -20.7,-20.9l-32.1,-0.2c-4.8,-24.7 -14.3,-48.7 -28.7,-70.5l22.8,-22.6c8.2,-8.1 8.2,-21.2 0.2,-29.4l-24.6,-24.9c-8.1,-8.2 -21.2,-8.2 -29.4,-0.2l-22.8,22.6c-21.6,-14.6 -45.5,-24.5 -70.2,-29.5l0.2,-32.1c0.1,-11.5 -9.2,-20.8 -20.7,-20.9l-35,-0.2c-11.5,-0.1 -20.8,9.2 -20.9,20.7l-0.3,32.1c-24.8,4.8 -48.8,14.3 -70.5,28.7l-22.6,-22.8c-8.1,-8.2 -21.2,-8.2 -29.4,-0.2l-24.8,24.6c-8.2,8.1 -8.2,21.2 -0.2,29.4l22.6,22.8c-14.6,21.6 -24.5,45.5 -29.5,70.2l-32.1,-0.2c-11.5,-0.1 -20.8,9.2 -20.9,20.7l-0.2,35c-0.1,11.4 9.2,20.8 20.7,20.9zm158.6,-103.3c36.6,-36.2 95.5,-35.9 131.7,0.7s35.9,95.5 -0.7,131.7s-95.5,35.9 -131.7,-0.7s-35.9,-95.5 0.7,-131.7z"/>
  </g>
  <g id="svg_3"/>
  <g id="svg_4"/>
  <g id="svg_5"/>
  <g id="svg_6"/>
  <g id="svg_7"/>
  <g id="svg_8"/>
  <g id="svg_9"/>
  <g id="svg_10"/>
  <g id="svg_11"/>
  <g id="svg_12"/>
  <g id="svg_13"/>
  <g id="svg_14"/>
  <g id="svg_15"/>
  <g id="svg_16"/>
  <g id="svg_17"/>
 </g>
</svg>