<svg xmlns="http://www.w3.org/2000/svg" data-name="Layer 1" viewBox="0 0 32 32"><path fill="#e0e0e2" d="M24.5,31.5H5.5a2,2,0,0,1-2-2V2.5a2,2,0,0,1,2-2H19.50033L26.5,7.50049V29.5A2,2,0,0,1,24.5,31.5Z"/><path fill="#d9d8da" d="M4.5,29.5V2.5a2,2,0,0,1,2-2h-1a2,2,0,0,0-2,2v27a2,2,0,0,0,2,2h1A2,2,0,0,1,4.5,29.5Z"/><path fill="#fff" d="M21.5,7.5H7.5a1,1,0,0,1-1-1v-2a1,1,0,0,1,1-1h12"/><path fill="#37b678" d="M7.624 14a.49886.49886 0 0 1-.333-.127l-1.12109-1a.50006.50006 0 1 1 .666-.74609l.76074.67871 2.542-2.65186a.50041.50041 0 0 1 .72266.69238l-2.876 3A.50076.50076 0 0 1 7.624 14zM7.624 19a.49886.49886 0 0 1-.333-.127l-1.12109-1a.50006.50006 0 1 1 .666-.74609l.76074.67871 2.542-2.65186a.50041.50041 0 0 1 .72266.69238l-2.876 3A.50076.50076 0 0 1 7.624 19zM7.624 24a.49886.49886 0 0 1-.333-.127l-1.12109-1a.50006.50006 0 1 1 .666-.74609l.76074.67871 2.542-2.65186a.50041.50041 0 0 1 .72266.69238l-2.876 3A.50076.50076 0 0 1 7.624 24zM7.624 29a.49886.49886 0 0 1-.333-.127l-1.12109-1a.50006.50006 0 1 1 .666-.74609l.76074.67871 2.542-2.65186a.50041.50041 0 0 1 .72266.69238l-2.876 3A.50076.50076 0 0 1 7.624 29z"/><path fill="#fff" d="M23.5 13h-11a.5.5 0 0 1 0-1h11a.5.5 0 0 1 0 1zM20.25977 18H12.5a.5.5 0 0 1 0-1h7.75977a.5.5 0 1 1 0 1zM16.65137 23H12.5a.5.5 0 0 1 0-1h4.15137a.5.5 0 1 1 0 1zM17.36523 28H12.5a.5.5 0 0 1 0-1h4.86523a.5.5 0 1 1 0 1z"/><path fill="#afaeb3" d="M26.5,7.5h-5a2,2,0,0,1-2-2V.5Z"/><path fill="#d9d8da" d="M21.5,7.5a2,2,0,0,1-2-2v1a2,2,0,0,0,2,2h5V7.50049Z"/><circle cx="24" cy="24" r="7.5" fill="#e5303e"/><path fill="#b72732" d="M17.5,24a7.49442,7.49442,0,0,1,7-7.47479c-.166-.011-.33118-.02521-.5-.02521a7.5,7.5,0,0,0,0,15c.16882,0,.334-.01422.5-.02521A7.49442,7.49442,0,0,1,17.5,24Z"/><circle cx="24" cy="24" r="5.5" fill="#fff"/><path fill="#e0e0e2" d="M19.5,24a5.49864,5.49864,0,0,1,5-5.47479c-.16492-.01489-.33118-.02521-.5-.02521a5.5,5.5,0,0,0,0,11c.16882,0,.33508-.01031.5-.02521A5.49868,5.49868,0,0,1,19.5,24Z"/><path fill="#3c3b41" d="M26.25 24.5H25a.5.5 0 0 1 0-1h1.25a.5.5 0 0 1 0 1zM24 23.5a.49971.49971 0 0 1-.5-.5V21.25a.5.5 0 0 1 1 0V23A.49971.49971 0 0 1 24 23.5z"/><circle cx="24" cy="24" r="1" fill="#e5303e" transform="rotate(-37.84 24 24)"/></svg>